{
    "asset": {
        "version": "2.0",
        "generator": "Open Asset Import Library (assimp v5.0.5eb040c7)"
    },
    "accessors": [
        {
            "bufferView": 0,
            "byteOffset": 0,
            "componentType": 5126,
            "count": 11827,
            "type": "VEC3",
            "max": [
                0.9880669713020325,
                0.991500973701477,
                0.9900209903717041
            ],
            "min": [
                -0.9880669713020325,
                -0.991500973701477,
                -0.9900199770927429
            ]
        },
        {
            "bufferView": 1,
            "byteOffset": 0,
            "componentType": 5126,
            "count": 11827,
            "type": "VEC3",
            "max": [
                0.9999045133590698,
                0.9998165965080261,
                0.99982088804245
            ],
            "min": [
                -0.9999045133590698,
                -0.9998165965080261,
                -0.99982088804245
            ]
        },
        {
            "bufferView": 2,
            "byteOffset": 0,
            "componentType": 5125,
            "count": 65664,
            "type": "SCALAR",
            "max": [
                11826
            ],
            "min": [
                0
            ]
        }
    ],
    "buffers": [
        {
            "byteLength": 546504,
            "uri": "result.bin"
        }
    ],
    "bufferViews": [
        {
            "buffer": 0,
            "byteOffset": 0,
            "byteLength": 141924,
            "target": 34962
        },
        {
            "buffer": 0,
            "byteOffset": 141924,
            "byteLength": 141924,
            "target": 34962
        },
        {
            "buffer": 0,
            "byteOffset": 283848,
            "byteLength": 262656,
            "target": 34963
        }
    ],
    "materials": [
        {
            "name": "DefaultMaterial",
            "pbrMetallicRoughness": {
                "baseColorFactor": [
                    0.6000000238418579,
                    0.6000000238418579,
                    0.6000000238418579,
                    1.0
                ],
                "metallicFactor": 0.0
            }
        },
        {
            "name": "Orange_BowlingBall",
            "pbrMetallicRoughness": {
                "baseColorFactor": [
                    0.6000000238418579,
                    0.6000000238418579,
                    0.6000000238418579,
                    1.0
                ],
                "metallicFactor": 0.0
            }
        }
    ],
    "meshes": [
        {
            "name": "Sphere",
            "primitives": [
                {
                    "mode": 4,
                    "material": 1,
                    "indices": 2,
                    "attributes": {
                        "POSITION": 0,
                        "NORMAL": 1
                    }
                }
            ]
        }
    ],
    "nodes": [
        {
            "name": "input.obj",
            "children": [
                1
            ]
        },
        {
            "name": "Sphere",
            "mesh": 0
        }
    ],
    "scenes": [
        {
            "nodes": [
                0
            ]
        }
    ],
    "scene": 0
}